<?xml version="1.0" encoding="UTF-8"?>
<svg width="700pt" height="700pt" version="1.1" viewBox="0 0 700 700" xmlns="http://www.w3.org/2000/svg" xmlns:xlink="http://www.w3.org/1999/xlink">
 <defs>
  <symbol id="v" overflow="visible">
   <path d="m18.766-1.125c-0.96875 0.5-1.9805 0.875-3.0312 1.125-1.043 0.25781-2.1367 0.39062-3.2812 0.39062-3.3984 0-6.0898-0.94531-8.0781-2.8438-1.9922-1.9062-2.9844-4.4844-2.9844-7.7344 0-3.2578 0.99219-5.8359 2.9844-7.7344 1.9883-1.9062 4.6797-2.8594 8.0781-2.8594 1.1445 0 2.2383 0.13281 3.2812 0.39062 1.0508 0.25 2.0625 0.625 3.0312 1.125v4.2188c-0.98047-0.65625-1.9453-1.1406-2.8906-1.4531-0.94922-0.3125-1.9492-0.46875-3-0.46875-1.875 0-3.3516 0.60547-4.4219 1.8125-1.0742 1.1992-1.6094 2.8555-1.6094 4.9688 0 2.1055 0.53516 3.7617 1.6094 4.9688 1.0703 1.1992 2.5469 1.7969 4.4219 1.7969 1.0508 0 2.0508-0.14844 3-0.45312 0.94531-0.3125 1.9102-0.80078 2.8906-1.4688z"/>
  </symbol>
  <symbol id="b" overflow="visible">
   <path d="m13.734-11.141c-0.4375-0.19531-0.87109-0.34375-1.2969-0.4375-0.41797-0.10156-0.83984-0.15625-1.2656-0.15625-1.2617 0-2.2305 0.40625-2.9062 1.2188-0.67969 0.80469-1.0156 1.9531-1.0156 3.4531v7.0625h-4.8906v-15.312h4.8906v2.5156c0.625-1 1.3438-1.7266 2.1562-2.1875 0.82031-0.46875 1.8008-0.70312 2.9375-0.70312 0.16406 0 0.34375 0.011719 0.53125 0.03125 0.19531 0.011719 0.47656 0.039062 0.84375 0.078125z"/>
  </symbol>
  <symbol id="a" overflow="visible">
   <path d="m17.641-7.7031v1.4062h-11.453c0.125 1.1484 0.53906 2.0078 1.25 2.5781 0.70703 0.57422 1.7031 0.85938 2.9844 0.85938 1.0312 0 2.082-0.14844 3.1562-0.45312 1.082-0.3125 2.1914-0.77344 3.3281-1.3906v3.7656c-1.1562 0.4375-2.3125 0.76562-3.4688 0.98438-1.1562 0.22656-2.3125 0.34375-3.4688 0.34375-2.7734 0-4.9297-0.70312-6.4688-2.1094-1.5312-1.4062-2.2969-3.3789-2.2969-5.9219 0-2.5 0.75391-4.4609 2.2656-5.8906 1.5078-1.4375 3.582-2.1562 6.2188-2.1562 2.4062 0 4.332 0.73047 5.7812 2.1875 1.4453 1.4492 2.1719 3.3828 2.1719 5.7969zm-5.0312-1.625c0-0.92578-0.27344-1.6719-0.8125-2.2344-0.54297-0.57031-1.25-0.85938-2.125-0.85938-0.94922 0-1.7188 0.26562-2.3125 0.79688s-0.96484 1.2969-1.1094 2.2969z"/>
  </symbol>
  <symbol id="f" overflow="visible">
   <path d="m9.2188-6.8906c-1.0234 0-1.793 0.17188-2.3125 0.51562-0.51172 0.34375-0.76562 0.85547-0.76562 1.5312 0 0.625 0.20703 1.1172 0.625 1.4688 0.41406 0.34375 0.98828 0.51562 1.7188 0.51562 0.92578 0 1.7031-0.32812 2.3281-0.98438 0.63281-0.66406 0.95312-1.4922 0.95312-2.4844v-0.5625zm7.4688-1.8438v8.7344h-4.9219v-2.2656c-0.65625 0.92969-1.3984 1.6055-2.2188 2.0312-0.82422 0.41406-1.8242 0.625-3 0.625-1.5859 0-2.8711-0.45703-3.8594-1.375-0.99219-0.92578-1.4844-2.1289-1.4844-3.6094 0-1.7891 0.61328-3.1016 1.8438-3.9375 1.2383-0.84375 3.1797-1.2656 5.8281-1.2656h2.8906v-0.39062c0-0.76953-0.30859-1.332-0.92188-1.6875-0.61719-0.36328-1.5703-0.54688-2.8594-0.54688-1.0547 0-2.0312 0.10547-2.9375 0.3125-0.89844 0.21094-1.7305 0.52344-2.5 0.9375v-3.7344c1.0391-0.25 2.0859-0.44141 3.1406-0.57812 1.0625-0.13281 2.125-0.20312 3.1875-0.20312 2.7578 0 4.75 0.54688 5.9688 1.6406 1.2266 1.0859 1.8438 2.8555 1.8438 5.3125z"/>
  </symbol>
  <symbol id="c" overflow="visible">
   <path d="m7.7031-19.656v4.3438h5.0469v3.5h-5.0469v6.5c0 0.71094 0.14062 1.1875 0.42188 1.4375s0.83594 0.375 1.6719 0.375h2.5156v3.5h-4.1875c-1.9375 0-3.3125-0.39844-4.125-1.2031-0.80469-0.8125-1.2031-2.1797-1.2031-4.1094v-6.5h-2.4219v-3.5h2.4219v-4.3438z"/>
  </symbol>
  <symbol id="k" overflow="visible">
   <path d="m12.766-13.078v-8.2031h4.9219v21.281h-4.9219v-2.2188c-0.66797 0.90625-1.4062 1.5703-2.2188 1.9844s-1.7578 0.625-2.8281 0.625c-1.8867 0-3.4336-0.75-4.6406-2.25-1.2109-1.5-1.8125-3.4258-1.8125-5.7812 0-2.3633 0.60156-4.2969 1.8125-5.7969 1.207-1.5 2.7539-2.25 4.6406-2.25 1.0625 0 2 0.21484 2.8125 0.64062 0.82031 0.42969 1.5664 1.0859 2.2344 1.9688zm-3.2188 9.9219c1.0391 0 1.8359-0.37891 2.3906-1.1406 0.55078-0.76953 0.82812-1.8828 0.82812-3.3438 0-1.457-0.27734-2.5664-0.82812-3.3281-0.55469-0.76953-1.3516-1.1562-2.3906-1.1562-1.043 0-1.8398 0.38672-2.3906 1.1562-0.55469 0.76172-0.82812 1.8711-0.82812 3.3281 0 1.4609 0.27344 2.5742 0.82812 3.3438 0.55078 0.76172 1.3477 1.1406 2.3906 1.1406z"/>
  </symbol>
  <symbol id="e" overflow="visible">
   <path d="m10.5-3.1562c1.0508 0 1.8516-0.37891 2.4062-1.1406 0.55078-0.76953 0.82812-1.8828 0.82812-3.3438 0-1.457-0.27734-2.5664-0.82812-3.3281-0.55469-0.76953-1.3555-1.1562-2.4062-1.1562-1.0547 0-1.8594 0.38672-2.4219 1.1562-0.55469 0.77344-0.82812 1.8828-0.82812 3.3281 0 1.4492 0.27344 2.5586 0.82812 3.3281 0.5625 0.77344 1.3672 1.1562 2.4219 1.1562zm-3.25-9.9219c0.67578-0.88281 1.4219-1.5391 2.2344-1.9688 0.82031-0.42578 1.7656-0.64062 2.8281-0.64062 1.8945 0 3.4453 0.75 4.6562 2.25 1.207 1.5 1.8125 3.4336 1.8125 5.7969 0 2.3555-0.60547 4.2812-1.8125 5.7812-1.2109 1.5-2.7617 2.25-4.6562 2.25-1.0625 0-2.0078-0.21094-2.8281-0.625-0.8125-0.42578-1.5586-1.0859-2.2344-1.9844v2.2188h-4.8906v-21.281h4.8906z"/>
  </symbol>
  <symbol id="j" overflow="visible">
   <path d="m0.34375-15.312h4.8906l4.125 10.391 3.5-10.391h4.8906l-6.4375 16.766c-0.64844 1.6953-1.4023 2.8828-2.2656 3.5625-0.86719 0.6875-2 1.0312-3.4062 1.0312h-2.8438v-3.2188h1.5312c0.83203 0 1.4375-0.13672 1.8125-0.40625 0.38281-0.26172 0.67969-0.73047 0.89062-1.4062l0.14062-0.42188z"/>
  </symbol>
  <symbol id="i" overflow="visible">
   <path d="m2.5781-20.406h5.25v16.422h9.25v3.9844h-14.5z"/>
  </symbol>
  <symbol id="h" overflow="visible">
   <path d="m14.312-14.828v3.7188c-1.043-0.4375-2.0547-0.76562-3.0312-0.98438-0.98047-0.21875-1.9023-0.32812-2.7656-0.32812-0.92969 0-1.6211 0.11719-2.0781 0.34375-0.44922 0.23047-0.67188 0.58984-0.67188 1.0781 0 0.38672 0.17188 0.68359 0.51562 0.89062 0.34375 0.21094 0.95703 0.36719 1.8438 0.46875l0.85938 0.125c2.5078 0.32422 4.1953 0.85156 5.0625 1.5781 0.86328 0.73047 1.2969 1.8711 1.2969 3.4219 0 1.6367-0.60547 2.8672-1.8125 3.6875-1.1992 0.8125-2.9922 1.2188-5.375 1.2188-1.0234 0-2.0742-0.078125-3.1562-0.23438-1.0742-0.15625-2.1797-0.39453-3.3125-0.71875v-3.7188c0.96875 0.48047 1.9609 0.83984 2.9844 1.0781 1.0312 0.23047 2.0781 0.34375 3.1406 0.34375 0.95703 0 1.6758-0.12891 2.1562-0.39062 0.47656-0.26953 0.71875-0.66406 0.71875-1.1875 0-0.4375-0.16797-0.75781-0.5-0.96875-0.33594-0.21875-0.99609-0.38281-1.9844-0.5l-0.85938-0.10938c-2.1797-0.26953-3.7031-0.77344-4.5781-1.5156-0.875-0.73828-1.3125-1.8594-1.3125-3.3594 0-1.625 0.55078-2.8281 1.6562-3.6094 1.1133-0.78906 2.8203-1.1875 5.125-1.1875 0.89453 0 1.8359 0.074219 2.8281 0.21875 1 0.13672 2.082 0.35156 3.25 0.64062z"/>
  </symbol>
  <symbol id="u" overflow="visible">
   <path d="m2.5781-20.406h6.6875l4.6562 10.922 4.6719-10.922h6.6875v20.406h-4.9844v-14.938l-4.7031 11.016h-3.3281l-4.7031-11.016v14.938h-4.9844z"/>
  </symbol>
  <symbol id="t" overflow="visible">
   <path d="m2.3594-15.312h4.8906v15.312h-4.8906zm0-5.9688h4.8906v4h-4.8906z"/>
  </symbol>
  <symbol id="d" overflow="visible">
   <path d="m9.6406-12.188c-1.0859 0-1.9141 0.39062-2.4844 1.1719-0.57422 0.78125-0.85938 1.9062-0.85938 3.375s0.28516 2.5938 0.85938 3.375c0.57031 0.77344 1.3984 1.1562 2.4844 1.1562 1.0625 0 1.875-0.38281 2.4375-1.1562 0.57031-0.78125 0.85938-1.9062 0.85938-3.375s-0.28906-2.5938-0.85938-3.375c-0.5625-0.78125-1.375-1.1719-2.4375-1.1719zm0-3.5c2.6328 0 4.6914 0.71484 6.1719 2.1406 1.4766 1.418 2.2188 3.3867 2.2188 5.9062 0 2.5117-0.74219 4.4805-2.2188 5.9062-1.4805 1.418-3.5391 2.125-6.1719 2.125-2.6484 0-4.7148-0.70703-6.2031-2.125-1.4922-1.4258-2.2344-3.3945-2.2344-5.9062 0-2.5195 0.74219-4.4883 2.2344-5.9062 1.4883-1.4258 3.5547-2.1406 6.2031-2.1406z"/>
  </symbol>
  <symbol id="g" overflow="visible">
   <path d="m17.75-9.3281v9.3281h-4.9219v-7.1406c0-1.3203-0.03125-2.2344-0.09375-2.7344s-0.16797-0.86719-0.3125-1.1094c-0.1875-0.3125-0.44922-0.55469-0.78125-0.73438-0.32422-0.17578-0.69531-0.26562-1.1094-0.26562-1.0234 0-1.8242 0.39844-2.4062 1.1875-0.58594 0.78125-0.875 1.8711-0.875 3.2656v7.5312h-4.8906v-15.312h4.8906v2.2344c0.73828-0.88281 1.5195-1.5391 2.3438-1.9688 0.83203-0.42578 1.75-0.64062 2.75-0.64062 1.7695 0 3.1133 0.54688 4.0312 1.6406 0.91406 1.0859 1.375 2.6562 1.375 4.7188z"/>
  </symbol>
  <symbol id="s" overflow="visible">
   <path d="m12.422-21.281v3.2188h-2.7031c-0.6875 0-1.1719 0.125-1.4531 0.375-0.27344 0.25-0.40625 0.6875-0.40625 1.3125v1.0625h4.1875v3.5h-4.1875v11.812h-4.8906v-11.812h-2.4375v-3.5h2.4375v-1.0625c0-1.6641 0.46094-2.8984 1.3906-3.7031 0.92578-0.80078 2.3672-1.2031 4.3281-1.2031z"/>
  </symbol>
  <symbol id="r" overflow="visible">
   <path d="m16.547-12.766c0.61328-0.94531 1.3477-1.6719 2.2031-2.1719 0.85156-0.5 1.7891-0.75 2.8125-0.75 1.7578 0 3.0977 0.54688 4.0156 1.6406 0.92578 1.0859 1.3906 2.6562 1.3906 4.7188v9.3281h-4.9219v-7.9844-0.35938c0.007813-0.13281 0.015625-0.32031 0.015625-0.5625 0-1.082-0.16406-1.8633-0.48438-2.3438-0.3125-0.48828-0.82422-0.73438-1.5312-0.73438-0.92969 0-1.6484 0.38672-2.1562 1.1562-0.51172 0.76172-0.77344 1.8672-0.78125 3.3125v7.5156h-4.9219v-7.9844c0-1.6953-0.14844-2.7852-0.4375-3.2656-0.29297-0.48828-0.8125-0.73438-1.5625-0.73438-0.9375 0-1.6641 0.38672-2.1719 1.1562-0.51172 0.76172-0.76562 1.8594-0.76562 3.2969v7.5312h-4.9219v-15.312h4.9219v2.2344c0.60156-0.86328 1.2891-1.5156 2.0625-1.9531 0.78125-0.4375 1.6406-0.65625 2.5781-0.65625 1.0625 0 2 0.25781 2.8125 0.76562 0.8125 0.51172 1.4258 1.2305 1.8438 2.1562z"/>
  </symbol>
  <symbol id="q" overflow="visible">
   <path d="m17.75-9.3281v9.3281h-4.9219v-7.1094c0-1.3438-0.03125-2.2656-0.09375-2.7656s-0.16797-0.86719-0.3125-1.1094c-0.1875-0.3125-0.44922-0.55469-0.78125-0.73438-0.32422-0.17578-0.69531-0.26562-1.1094-0.26562-1.0234 0-1.8242 0.39844-2.4062 1.1875-0.58594 0.78125-0.875 1.8711-0.875 3.2656v7.5312h-4.8906v-21.281h4.8906v8.2031c0.73828-0.88281 1.5195-1.5391 2.3438-1.9688 0.83203-0.42578 1.75-0.64062 2.75-0.64062 1.7695 0 3.1133 0.54688 4.0312 1.6406 0.91406 1.0859 1.375 2.6562 1.375 4.7188z"/>
  </symbol>
  <symbol id="p" overflow="visible">
   <path d="m2.5781-20.406h5.875l7.4219 14v-14h4.9844v20.406h-5.875l-7.4219-14v14h-4.9844z"/>
  </symbol>
  <symbol id="o" overflow="visible">
   <path d="m2.1875-5.9688v-9.3438h4.9219v1.5312c0 0.83594-0.007813 1.875-0.015625 3.125-0.011719 1.25-0.015625 2.0859-0.015625 2.5 0 1.2422 0.03125 2.1328 0.09375 2.6719 0.070313 0.54297 0.17969 0.93359 0.32812 1.1719 0.20703 0.32422 0.47266 0.57422 0.79688 0.75 0.32031 0.16797 0.69141 0.25 1.1094 0.25 1.0195 0 1.8203-0.39062 2.4062-1.1719 0.58203-0.78125 0.875-1.8672 0.875-3.2656v-7.5625h4.8906v15.312h-4.8906v-2.2188c-0.74219 0.89844-1.5234 1.5586-2.3438 1.9844-0.82422 0.41406-1.7344 0.625-2.7344 0.625-1.7617 0-3.1055-0.53906-4.0312-1.625-0.92969-1.082-1.3906-2.6602-1.3906-4.7344z"/>
  </symbol>
  <symbol id="n" overflow="visible">
   <path d="m2.5781-20.406h8.7344c2.5938 0 4.582 0.57812 5.9688 1.7344 1.3945 1.1484 2.0938 2.7891 2.0938 4.9219 0 2.1367-0.69922 3.7812-2.0938 4.9375-1.3867 1.1562-3.375 1.7344-5.9688 1.7344h-3.4844v7.0781h-5.25zm5.25 3.8125v5.7031h2.9219c1.0195 0 1.8047-0.25 2.3594-0.75 0.5625-0.5 0.84375-1.2031 0.84375-2.1094 0-0.91406-0.28125-1.6172-0.84375-2.1094-0.55469-0.48828-1.3398-0.73438-2.3594-0.73438z"/>
  </symbol>
  <symbol id="m" overflow="visible">
   <path d="m2.3594-15.312h4.8906v15.031c0 2.0508-0.49609 3.6172-1.4844 4.7031-0.98047 1.082-2.4062 1.625-4.2812 1.625h-2.4219v-3.2188h0.85938c0.92578 0 1.5625-0.21094 1.9062-0.625 0.35156-0.41797 0.53125-1.2461 0.53125-2.4844zm0-5.9688h4.8906v4h-4.8906z"/>
  </symbol>
  <symbol id="l" overflow="visible">
   <path d="m14.719-14.828v3.9844c-0.65625-0.45703-1.3242-0.79688-2-1.0156-0.66797-0.21875-1.3594-0.32812-2.0781-0.32812-1.3672 0-2.4336 0.40234-3.2031 1.2031-0.76172 0.79297-1.1406 1.9062-1.1406 3.3438 0 1.4297 0.37891 2.543 1.1406 3.3438 0.76953 0.79297 1.8359 1.1875 3.2031 1.1875 0.75781 0 1.4844-0.10938 2.1719-0.32812 0.6875-0.22656 1.3203-0.56641 1.9062-1.0156v4c-0.76172 0.28125-1.5391 0.48828-2.3281 0.625-0.78125 0.14453-1.5742 0.21875-2.375 0.21875-2.7617 0-4.9219-0.70703-6.4844-2.125-1.5547-1.4141-2.3281-3.3828-2.3281-5.9062 0-2.5312 0.77344-4.5039 2.3281-5.9219 1.5625-1.4141 3.7227-2.125 6.4844-2.125 0.80078 0 1.5938 0.074219 2.375 0.21875 0.78125 0.13672 1.5547 0.35156 2.3281 0.64062z"/>
  </symbol>
 </defs>
 <g>
  <path d="m389.87 255.98c8.9141 0 17.457-3.5391 23.758-9.8398 6.3047-6.3047 9.8438-14.848 9.8438-23.762-0.007812-2.7344-0.32422-5.457-0.95312-8.1172-0.92578-3.7578-4.7266-6.0547-8.4844-5.125-3.7578 0.92578-6.0508 4.7266-5.125 8.4844 1.3203 5.3555 0.28516 11.02-2.8398 15.566-3.1289 4.543-8.0469 7.5352-13.523 8.2188-5.4727 0.68359-10.977-1.0039-15.129-4.6406-4.1484-3.6328-6.543-8.8711-6.5859-14.387-0.039062-4.6094 1.5898-9.082 4.582-12.59 2.9961-3.5078 7.1523-5.8164 11.715-6.5039 3.8203-0.60547 6.4258-4.1914 5.8242-8.0078-0.60547-3.8203-4.1914-6.4297-8.0078-5.8242-10.539 2.4414-19.258 9.8086-23.422 19.789-4.168 9.9844-3.2734 21.359 2.4023 30.57 5.6758 9.207 15.438 15.121 26.227 15.887z"/>
  <path d="m184.41 390.32-75.207 139.33c-1.2305 2.1289-1.2305 4.7578 0 6.8867 1.2578 2.1133 3.5352 3.4102 5.9922 3.418h118.72c2.6406 0 5.0586-1.4688 6.2734-3.8086l2.1289-4.3125c9.5742-19.602 14.391-29.457 107.86-36.68 38.352-2.9844 75.918-12.453 111.11-28 2.0156-0.95312 14.391-7.9531 60.871-53.762 33.207-32.703 46.312-72.801 42.168-90.328 24.398-42.391 32.551-92.207 22.941-140.16-9.6055-47.957-36.324-90.785-75.168-120.51-38.848-29.719-87.172-44.305-135.97-41.039-48.801 3.2695-94.75 24.168-129.29 58.805-34.539 34.633-55.305 80.645-58.434 129.45-3.125 48.812 11.598 97.094 41.43 135.86-19.664 9.543-35.629 25.312-45.418 44.855zm80.082-37.52c38.863 1.5664 56-7.5586 72.352-16.352 6.0508-3.332 12.316-6.25 18.762-8.7383 3.6406-1.3438 10.078-2.9102 12.824 1.9609 3.4727 6.3828 0 21.559-18.199 35.504-31.363 23.633-43.066 26.824-43.066 26.824-3.3984 0.6875-5.7812 3.7617-5.6016 7.2227 0.13672 3.5078 2.8828 6.3555 6.3867 6.6094 0.28125 0 27.105 2.2969 55.551 2.9102 1.8594 0.078124 3.6719-0.60938 5.0117-1.8984 1.3438-1.2891 2.1016-3.0703 2.1016-4.9336 0.042969-1.8555-0.65234-3.6523-1.9336-4.9961-1.2812-1.3477-3.043-2.125-4.8984-2.1719-10.473 0-20.719-0.67188-29.457-1.1211 6.4961-4.1445 14.504-9.6875 24.246-16.801v0.003907c6.875-5.1133 12.809-11.387 17.531-18.535 4.2734 2.2812 9.0391 3.4922 13.887 3.5273 20.719 0 38.305-22.398 48.945-57.344 5.0391 1.0078 10.023 1.8477 14.785 2.4062h-0.003906c4.7812 0.54688 9.582 0.82422 14.395 0.83984 22.008 0 37.406-6.6094 44.129-19.098 9.1836-17.191 0-41.16-22.848-65.52 22.734-24.414 32.031-48.383 22.848-65.52l-0.003906 0.003907c-5.4023-8.8711-14.355-14.992-24.582-16.801-3.0391 0.19141-5.6094 2.3242-6.3516 5.2812-0.73828 2.9531 0.51562 6.0469 3.1016 7.6523 6.3945 0.94141 12.07 4.5938 15.57 10.023 5.6016 10.414-2.0703 28.727-20.664 48.832-9.8125-8.9727-20.277-17.207-31.305-24.637-1.1992-11.137-3.0664-22.188-5.6016-33.098 5.5508-1.1406 11.16-1.9609 16.801-2.4648 1.8906-0.10156 3.6602-0.96484 4.9023-2.3906 1.2461-1.4297 1.8555-3.3008 1.6992-5.1875-0.16016-1.8867-1.0781-3.6289-2.543-4.8281-1.4648-1.1992-3.3516-1.7539-5.2344-1.5352-6.4688 0.55469-12.902 1.4922-19.262 2.7969-10.363-35.168-28.168-57.23-48.891-57.23-20.719 0-38.359 22.398-48.945 57.289-5.0391-1.0078-10.023-1.8477-14.785-2.3516-29.68-3.3594-50.398 3.1367-58.52 18.258l0.003906-0.003906c-4.0234 8.168-4.6094 17.605-1.625 26.207 1.1992 3.5391 4.9727 5.5117 8.5625 4.4805 3.5938-1.0352 5.7383-4.707 4.8789-8.3438-1.8789-5.1406-1.6562-10.812 0.61328-15.793 5.1523-9.5742 21.449-13.551 44.801-11.199 4.1445 0.44922 8.3984 1.1758 12.77 2.0156-2.5586 10.926-4.4297 21.996-5.6016 33.152-11.055 7.418-21.539 15.652-31.359 24.641-1.9609-2.0703-3.8633-4.1992-5.6016-6.2734-1.125-1.5898-2.8633-2.6367-4.793-2.8906-1.9336-0.25781-3.8828 0.30469-5.3828 1.5469s-2.4141 3.0547-2.5234 5 0.59766 3.8477 1.9492 5.25c1.9609 2.4062 4.1445 4.8711 6.4414 7.2812-22.848 24.414-32.258 48.496-23.016 65.688 6.6641 12.488 22.398 19.098 44.129 19.098l-0.003907-0.003906c4.8086-0.015625 9.6133-0.29297 14.395-0.83984 4.7617-0.55859 9.7422-1.3984 14.785-2.4062 1.3438 4.4805 2.8008 8.7344 4.3125 12.711-5.6016 2.4062-10.305 4.9844-15.008 7.5039-15.512 8.3438-30.238 16.129-65.184 14.727h-0.003906c-6.9805-0.27734-13.965 0.36328-20.777 1.9062-28.754-35.367-43.656-79.992-41.918-125.54 1.7383-45.547 19.996-88.906 51.359-121.98 31.367-33.074 73.699-53.598 119.09-57.746 45.391-4.1445 90.742 8.375 127.58 35.215 36.84 26.844 62.648 66.18 72.609 110.66 9.9609 44.48 3.3906 91.062-18.48 131.05-0.625-0.17188-1.2617-0.28516-1.9062-0.33594-14.055 0-51.52 35.617-73.246 57.512-19.098 9.1836-39.031 16.516-59.527 21.895-4.9102 1.0664-9.8867 1.7773-14.898 2.1289-3.9102 0.26172-6.8711 3.6484-6.6055 7.5586 0.26172 3.9141 3.6445 6.8711 7.5586 6.6094 5.6523-0.41406 11.266-1.2383 16.801-2.4648 21.887-5.7109 43.16-13.57 63.504-23.461 0.71094-0.33203 1.3555-0.78516 1.9023-1.3477 23.742-24.078 53.594-50.398 62.777-53.871 2.5742 8.6797-5.9375 44.801-38.586 76.887-44.797 44.578-56.504 50.906-56.84 51.074-33.723 14.785-69.688 23.812-106.4 26.711-97.328 7.5039-106.9 19.039-119.39 44.465h-102.54l69.664-129.36c0.83984-1.5703 22.344-45.191 67.594-43.512zm125.33-196c-11.363-4.8164-23.035-8.8594-34.945-12.098 9.0156-29.121 22.398-46.594 35-46.594 12.602 0 25.984 17.473 35 46.48v0.003906c-11.941 3.2852-23.652 7.3633-35.055 12.207zm38.754 1.3984c1.457 6.2734 2.7422 12.992 3.7539 20.105-4.5938-2.7422-9.3516-5.6016-14.281-8.1211-3.4141-1.8477-6.9453-3.5859-10.414-5.3203 7.1055-2.4648 14.105-5.0391 20.77-6.832zm-56.172 6.4961-10.473 5.3203c-4.8711 2.6328-9.6328 5.6016-14.281 8.1211 1.0625-7.1133 2.3516-13.832 3.8086-20.105 6.5547 1.8477 13.555 4.0312 20.945 6.6641zm-3.8086 17.695c7.168-3.8633 14.391-7.3359 21.617-10.527 7.168 3.1914 14.336 6.6641 21.504 10.527 8.1758 4.3672 15.848 8.8867 23.016 13.551 0.72656 8.5117 1.1211 17.414 1.1211 26.711s-0.39062 18.145-1.1211 26.656c-7.4453 4.6523-15.117 9.2422-23.125 13.891-7.168 3.8633-14.391 7.3359-21.559 10.527-7.168-3.1914-14.391-6.6641-21.559-10.527-8.0625-4.332-15.734-8.8672-23.016-13.609-1.0703-8.7891-1.0703-17.695-1.0703-26.934s0.39062-18.199 1.1211-26.711c7.0195-4.668 14.617-9.1836 22.793-13.555zm12.098 140.5c-2.0938-3.6992-5.2734-6.6719-9.1094-8.5156-3.832-1.8398-8.1406-2.4648-12.34-1.7852-1.457-3.6406-2.8008-7.6719-4.0898-11.816h0.003906c11.926-3.2695 23.617-7.3281 35-12.152 11.383 4.8242 23.074 8.8828 35 12.152-9.0156 29.062-22.398 46.594-35 46.594v-0.003906c-2.8242-0.058594-5.582-0.85156-8.0078-2.2969 2.3672-7.332 1.7422-15.301-1.7383-22.176zm-29.512-35.613c-1.457-6.3281-2.7422-13.105-3.8086-20.215 4.6484 2.8008 9.4062 5.6016 14.281 8.1758l10.473 5.6016c-7.1133 2.3477-14.113 4.7578-20.945 6.4375zm56.449-6.6641 10.414-5.6016c4.9297-2.6133 9.6875-5.3008 14.281-8.0625-1.0078 7.0547-2.2969 13.777-3.7539 20.105-6.832-1.457-13.832-3.8672-20.941-6.4414zm41.551-74.367v-0.003906c6.9297 5.0938 13.566 10.57 19.879 16.41-6.3398 5.8047-12.977 11.281-19.879 16.406 0-5.6016 0.39062-10.863 0.39062-16.406s-0.16797-11.031-0.39062-16.41zm29.961 26.488c18.594 20.105 26.207 38.414 20.664 48.832-5.543 10.414-21.391 13.551-44.801 11.199-4.0898-0.50391-8.3438-1.2305-12.711-2.0703v-0.003907c2.5352-10.926 4.4062-21.996 5.5977-33.152 11.027-7.4688 21.477-15.762 31.25-24.809zm-148.57 6.3242c-6.8867-5.0977-13.488-10.574-19.766-16.406 6.3555-5.8086 13.012-11.285 19.934-16.41 0 5.6016-0.39062 10.809-0.39062 16.406 0 5.6055 0 11.035 0.22266 16.41zm1.3438 18.09c1.168 11.211 3.0391 22.34 5.6016 33.32-4.3672 0.83984-8.625 1.5664-12.77 2.0703-23.238 2.5742-39.48-1.3984-44.801-11.199-5.6016-10.473 2.1289-28.84 20.777-49 9.7656 9.0352 20.191 17.328 31.191 24.809z"/>
  <use x="70" y="644" xlink:href="#v"/>
  <use x="90.550781" y="644" xlink:href="#b"/>
  <use x="104.359375" y="644" xlink:href="#a"/>
  <use x="123.347656" y="644" xlink:href="#f"/>
  <use x="142.242188" y="644" xlink:href="#c"/>
  <use x="155.628906" y="644" xlink:href="#a"/>
  <use x="174.617188" y="644" xlink:href="#k"/>
  <use x="204.410156" y="644" xlink:href="#e"/>
  <use x="224.453125" y="644" xlink:href="#j"/>
  <use x="252.453125" y="644" xlink:href="#i"/>
  <use x="270.292969" y="644" xlink:href="#f"/>
  <use x="289.1875" y="644" xlink:href="#b"/>
  <use x="302.996094" y="644" xlink:href="#h"/>
  <use x="329.410156" y="644" xlink:href="#u"/>
  <use x="357.273438" y="644" xlink:href="#a"/>
  <use x="376.265625" y="644" xlink:href="#t"/>
  <use x="385.859375" y="644" xlink:href="#a"/>
  <use x="404.851562" y="644" xlink:href="#b"/>
  <use x="418.660156" y="644" xlink:href="#c"/>
  <use x="432.046875" y="644" xlink:href="#d"/>
  <use x="451.28125" y="644" xlink:href="#e"/>
  <use x="471.324219" y="644" xlink:href="#a"/>
  <use x="490.3125" y="644" xlink:href="#b"/>
  <use x="504.125" y="644" xlink:href="#a"/>
  <use x="523.113281" y="644" xlink:href="#g"/>
  <use x="543.046875" y="644" xlink:href="#h"/>
  <use x="70" y="672" xlink:href="#s"/>
  <use x="82.183594" y="672" xlink:href="#b"/>
  <use x="95.992188" y="672" xlink:href="#d"/>
  <use x="115.226562" y="672" xlink:href="#r"/>
  <use x="154.152344" y="672" xlink:href="#c"/>
  <use x="167.535156" y="672" xlink:href="#q"/>
  <use x="187.46875" y="672" xlink:href="#a"/>
  <use x="216.207031" y="672" xlink:href="#p"/>
  <use x="239.640625" y="672" xlink:href="#d"/>
  <use x="258.878906" y="672" xlink:href="#o"/>
  <use x="278.8125" y="672" xlink:href="#g"/>
  <use x="308.492188" y="672" xlink:href="#n"/>
  <use x="329.015625" y="672" xlink:href="#b"/>
  <use x="342.820312" y="672" xlink:href="#d"/>
  <use x="362.058594" y="672" xlink:href="#m"/>
  <use x="371.65625" y="672" xlink:href="#a"/>
  <use x="390.648438" y="672" xlink:href="#l"/>
  <use x="407.242188" y="672" xlink:href="#c"/>
 </g>
</svg>
